<?xml version="1.0" encoding="UTF-8"?>
<svg version="1.1" xmlns="http://www.w3.org/2000/svg" width="164" height="156">
<path d="M0 0 C4.21215136 5.06179283 7.45763325 10.53202504 10.76538086 16.2109375 C11.81420078 18.00290588 12.88244571 19.78235167 13.95117188 21.5625 C14.61310547 22.696875 15.27503906 23.83125 15.95703125 25 C16.56522705 26.03125 17.17342285 27.0625 17.80004883 28.125 C19.18821549 31.45095129 19.19395927 32.64454555 18 36 C16.68066406 38.62792969 16.68066406 38.62792969 15.015625 41.421875 C14.10683594 42.96101563 14.10683594 42.96101563 13.1796875 44.53125 C12.22449219 46.12453125 12.22449219 46.12453125 11.25 47.75 C10.00436398 49.84845736 8.75955903 51.94740828 7.515625 54.046875 C6.91943359 55.05041016 6.32324219 56.05394531 5.70898438 57.08789062 C3.40144553 61.01993682 1.18287089 64.9976465 -1 69 C0.48040771 68.81147461 0.48040771 68.81147461 1.99072266 68.61914062 C29.2998524 65.43529421 29.2998524 65.43529421 36.99951172 71.27490234 C42.2796983 77.71614293 45.30326961 85.19056055 48 93 C48.66156761 94.66869725 49.32749832 96.33567921 50 98 C40.91556501 98.11629942 31.83138972 98.20491922 22.74637032 98.25906086 C18.52693343 98.28505782 14.30800914 98.32027193 10.08886719 98.37719727 C6.01042583 98.43187439 1.93247476 98.46149484 -2.14630508 98.47438622 C-3.69554478 98.48356261 -5.24476029 98.50148103 -6.79378891 98.52865028 C-15.75717701 98.67948621 -23.41271703 98.44490991 -31 93 C-35.32334774 88.57120475 -36.17493411 85.0121202 -36.3125 78.9375 C-36.34988281 77.87402344 -36.38726562 76.81054688 -36.42578125 75.71484375 C-35.4428984 67.13941632 -30.72766806 59.15554626 -26.89453125 51.5234375 C-26.41102707 50.55451569 -25.92752289 49.58559387 -25.42936707 48.58731079 C-24.41019876 46.54762124 -23.38903508 44.5089276 -22.3659668 42.47119141 C-20.82851095 39.40691118 -19.29956215 36.33849674 -17.77148438 33.26953125 C-12.14119019 22.00210461 -6.32031281 10.89640602 0 0 Z " fill="#1A3484" transform="translate(36,57)"/>
<path d="M0 0 C3 1 3 1 4.09262085 2.62193298 C4.43121124 3.32798172 4.76980164 4.03403046 5.11865234 4.76147461 C5.51190704 5.56838242 5.90516174 6.37529022 6.31033325 7.20664978 C6.73128265 8.09622879 7.15223206 8.9858078 7.5859375 9.90234375 C8.03532684 10.83039322 8.48471619 11.75844269 8.94772339 12.71461487 C9.9217349 14.72868403 10.89116098 16.74497561 11.85656738 18.76318359 C14.42941526 24.14177804 17.0339574 29.50503161 19.6328125 34.87109375 C20.16297974 35.96839813 20.69314697 37.06570251 21.23937988 38.19625854 C26.47306292 49.01632416 31.85014241 59.76217749 37.25 70.5 C43.94619216 83.83382376 50.54435804 97.20015445 56.89453125 110.703125 C58.55417223 114.15142499 60.30722485 117.55172418 62.06445312 120.95117188 C63 123 63 123 63 125 C51.78 125 40.56 125 29 125 C26.958125 120.75125 24.91625 116.5025 22.8125 112.125 C18.05686426 102.25169234 13.23720262 92.41543123 8.3125 82.625 C-2.72781523 60.66304667 -2.72781523 60.66304667 -7.57104492 49.90893555 C-8.67175195 47.66821724 -9.81070023 45.68080099 -11.1418457 43.58520508 C-16.40490708 34.83688541 -16.40490708 34.83688541 -15.70275879 29.91744995 C-14.07145943 24.57452014 -11.25360594 19.85245563 -8.4375 15.0625 C-7.62944022 13.59210677 -6.82665159 12.11880382 -6.02929688 10.64257812 C-4.07873751 7.05858901 -2.06096242 3.52156722 0 0 Z " fill="#363334" transform="translate(64,0)"/>
<path d="M0 0 C31.80815878 -2.89654361 31.80815878 -2.89654361 40.09423828 3.32226562 C45.40326575 9.7382818 48.37202015 17.1736277 51 25 C51.66 26.65 52.32 28.3 53 30 C32.54 30 12.08 30 -9 30 C-7.86369863 19.77328767 -7.86369863 19.77328767 -6.1875 14.4375 C-5.87167969 13.40496094 -5.55585938 12.37242187 -5.23046875 11.30859375 C-3.76794053 7.37601786 -1.94460766 3.71254096 0 0 Z " fill="#1E297B" transform="translate(33,125)"/>
<path d="M0 0 C20.46 0 40.92 0 62 0 C64.475 4.455 64.475 4.455 67 9 C59.00279735 9.18555702 51.006497 9.32759902 43.00767231 9.41449738 C39.29315864 9.45621076 35.58011978 9.51275646 31.86645508 9.60351562 C28.28071366 9.69059759 24.69638798 9.73830313 21.10967064 9.75901794 C19.74315278 9.77377372 18.37671053 9.80259259 17.0107975 9.84584045 C6.28887461 10.17174394 6.28887461 10.17174394 3.02108765 7.20092773 C0 2.47851396 0 2.47851396 0 0 Z " fill="#363334" transform="translate(97,133)"/>
<path d="M0 0 C12.54 0 25.08 0 38 0 C38.99 2.31 39.98 4.62 41 7 C35.64323369 7.12353289 30.28729474 7.21430573 24.92944336 7.2746582 C23.10670533 7.29981397 21.28406828 7.33394285 19.46166992 7.37719727 C16.84268307 7.43780546 14.22502847 7.46619761 11.60546875 7.48828125 C10.78974899 7.51408768 9.97402924 7.5398941 9.1335907 7.56648254 C6.82885742 7.56762695 6.82885742 7.56762695 3 7 C0.94339403 4.57233274 0 3.1942286 0 0 Z " fill="#363334" transform="translate(106,149)"/>
</svg>
